<svg viewBox="0 0 64 64" xmlns="http://www.w3.org/2000/svg">
  <defs>
    <linearGradient id="fur" x1="0" y1="0" x2="1" y2="1">
      <stop offset="0%" stop-color="#ff7fe0"/>
      <stop offset="100%" stop-color="#b066f5"/>
    </linearGradient>
    <linearGradient id="face" x1="0" y1="0" x2="0" y2="1">
      <stop offset="0%" stop-color="#fff2fc"/>
      <stop offset="100%" stop-color="#ffd9f4"/>
    </linearGradient>
  </defs>
  <rect width="64" height="64" rx="15" fill="#120a1f"/>
  <path d="M16 26 L21 11 L33 23 Z" fill="url(#fur)"/>
  <path d="M48 26 L43 11 L31 23 Z" fill="url(#fur)"/>
  <circle cx="32" cy="35" r="17" fill="url(#face)" stroke="#ff2d95" stroke-width="2.2"/>
  <ellipse cx="26.5" cy="34" rx="2.8" ry="3.5" fill="#2b0f3f"/>
  <ellipse cx="37.5" cy="34" rx="2.8" ry="3.5" fill="#2b0f3f"/>
  <circle cx="27.5" cy="32.6" r="1" fill="#fff"/>
  <circle cx="38.5" cy="32.6" r="1" fill="#fff"/>
  <ellipse cx="22" cy="38.5" rx="3" ry="2.2" fill="#ff8fe0" opacity="0.6"/>
  <ellipse cx="42" cy="38.5" rx="3" ry="2.2" fill="#ff8fe0" opacity="0.6"/>
  <path d="M30.3 38.5 L33.7 38.5 L32 40.6 Z" fill="#ff2d95"/>
  <path d="M13 34 A19 19 0 0 1 51 34" stroke="#7c3aed" stroke-width="3.4" fill="none" stroke-linecap="round"/>
  <rect x="8.5" y="31" width="8" height="13" rx="4" fill="#7c3aed"/>
  <rect x="47.5" y="31" width="8" height="13" rx="4" fill="#7c3aed"/>
  <rect x="10.8" y="33.5" width="3.4" height="8" rx="1.7" fill="#22d3ee"/>
  <rect x="49.8" y="33.5" width="3.4" height="8" rx="1.7" fill="#22d3ee"/>
</svg>
